<?xml version="1.0" standalone="no"?><!DOCTYPE svg PUBLIC "-//W3C//DTD SVG 1.1//EN" "http://www.w3.org/Graphics/SVG/1.1/DTD/svg11.dtd"><svg t="1679187225395" class="icon" viewBox="0 0 1024 1024" version="1.1" xmlns="http://www.w3.org/2000/svg" p-id="1974" xmlns:xlink="http://www.w3.org/1999/xlink" width="200" height="200"><path d="M654.506667 584.149333m-270.336 0a270.336 270.336 0 1 0 540.672 0 270.336 270.336 0 1 0-540.672 0Z" fill="#F9EF00" p-id="1975"></path><path d="M299.690667 69.973333a201.258667 201.258667 0 0 0-201.258667 201.258667v424.661333a201.258667 201.258667 0 0 0 201.258667 201.216h424.618666a201.258667 201.258667 0 0 0 201.258667-201.216V271.232a201.216 201.216 0 0 0-201.258667-201.258667H299.690667zM183.765333 271.232c0-64 51.882667-115.925333 115.925334-115.925333h424.618666c64 0 115.925333 51.925333 115.925334 115.925333v424.661333c0 64-51.882667 115.882667-115.925334 115.882667H299.690667a115.925333 115.925333 0 0 1-115.925334-115.882667V271.232z m357.461334 124.202667a42.666667 42.666667 0 0 0-60.330667 0l-156.714667 156.714666a42.666667 42.666667 0 1 0 60.373334 60.330667l126.506666-126.549333 126.549334 126.549333a42.666667 42.666667 0 0 0 60.330666-60.330667l-156.714666-156.714666z" fill="#000000" p-id="1976"></path></svg>